<?xml version="1.0" encoding="UTF-8"?>
<svg width="36px" height="36px" viewBox="0 0 36 36" version="1.1" xmlns="http://www.w3.org/2000/svg" xmlns:xlink="http://www.w3.org/1999/xlink">
    <g id="Trial-Upsell-V6" stroke="none" stroke-width="1" fill="none" fill-rule="evenodd">
        <g id="Trial-Upsell---Current-Logo" transform="translate(-356.000000, -470.000000)" fill="#FFA333">
            <g id="Left-Panel">
                <g id="Value-Props" transform="translate(46.000000, 266.940000)">
                    <g id="Message-Icon" transform="translate(310.000000, 203.060000)">
                        <path d="M31.8315789,0 L3.53684211,0 C1.58349815,0 1.36424205e-12,1.58349815 1.36424205e-12,3.53684211 L1.36424205e-12,35.3684211 L7.07368421,28.2947368 L31.8315789,28.2947368 C33.7849229,28.2947368 35.3684211,26.7112387 35.3684211,24.7578947 L35.3684211,3.53684211 C35.3684211,1.58349815 33.7849229,0 31.8315789,0 M30.9651,25.7156334 L6.3125,25.7156334 L2.5,29.5 L2.5,4.5349 C2.5,3.41105576 3.41105576,2.5 4.5349,2.5 L30.9651,2.5 C32.0889442,2.5 33,3.41105576 33,4.5349 L33,23.6807334 C33,24.8045777 32.0889442,25.7156334 30.9651,25.7156334 Z" id="Shape"></path>
                    </g>
                </g>
            </g>
        </g>
    </g>
</svg>
