<?xml version="1.0" encoding="UTF-8"?>
<svg width="36px" height="37px" viewBox="0 0 36 37" version="1.1" xmlns="http://www.w3.org/2000/svg" xmlns:xlink="http://www.w3.org/1999/xlink">
    <g id="Trial-Upsell-V6" stroke="none" stroke-width="1" fill="none" fill-rule="evenodd">
        <g id="Trial-Upsell---Current-Logo" transform="translate(-355.000000, -269.000000)" fill="#917EF2">
            <g id="Left-Panel">
                <g id="Value-Props" transform="translate(46.000000, 266.940000)">
                    <g id="Path-Icon" transform="translate(309.000000, 3.000000)">
                        <path d="M34.9013641,24.2006689 L29.3652857,24.2006689 L29.3652857,17.9397993 C29.3652857,17.3377926 28.8838875,16.735786 28.1617904,16.735786 L9.02621486,16.735786 L9.02621486,11.7993311 L14.5622933,11.7993311 C15.164041,11.7993311 15.7657886,11.3177258 15.7657886,10.5953177 L15.7657886,1.20401338 C15.7657886,0.602006689 15.164041,0 14.5622933,0 L1.20349531,0 C0.601747657,0 0,0.602006689 0,1.20401338 L0,10.5953177 C0,11.3177258 0.601747657,11.7993311 1.20349531,11.7993311 L6.73957376,11.7993311 L6.73957376,24.2006689 L1.20349531,24.2006689 C0.601747657,24.2006689 0,24.6822742 0,25.4046823 L0,34.7959866 C0,35.5183946 0.601747657,36 1.20349531,36 L14.5622933,36 C15.164041,36 15.7657886,35.5183946 15.7657886,34.7959866 L15.7657886,25.4046823 C15.7657886,24.6822742 15.164041,24.2006689 14.5622933,24.2006689 L9.02621486,24.2006689 L9.02621486,19.1438127 L26.958295,19.1438127 L26.958295,24.2006689 L21.4222166,24.2006689 C20.8204689,24.2006689 20.2187213,24.6822742 20.2187213,25.4046823 L20.2187213,34.7959866 C20.2187213,35.5183946 20.8204689,36 21.4222166,36 L34.7810146,36 C35.3827622,36 35.9845099,35.5183946 35.9845099,34.7959866 L35.9845099,25.4046823 C36.1048594,24.8026756 35.5031118,24.2006689 34.9013641,24.2006689 Z M13.358798,26.6086957 L13.358798,33.5919732 L2.40699063,33.5919732 L2.40699063,26.6086957 L13.358798,26.6086957 Z M2.40699063,9.39130435 L2.40699063,2.40802676 L13.358798,2.40802676 L13.358798,9.39130435 L2.40699063,9.39130435 Z M33.6978688,33.7123746 L22.7460614,33.7123746 L22.7460614,26.729097 L33.6978688,26.729097 L33.6978688,33.7123746 L33.6978688,33.7123746 Z"></path>
                    </g>
                </g>
            </g>
        </g>
    </g>
</svg>
